<svg xmlns="http://www.w3.org/2000/svg" viewBox="0 0 80 80" class="bd-logo">
  <g>
    <path class="bd-logo-body" d="M 52.71 65.39 C37.93,72.47 25.28,67.83 12.24,50.54 C9.73,47.22 6.29,42.99 4.59,41.14 L 1.50 37.78 L 4.79 38.48 C5.41,38.61 5.93,38.72 6.46,38.74 C9.16,38.85 11.96,36.53 29.48,22.01 L 29.67 21.85 C37.46,15.39 44.12,9.20 44.47,8.09 C44.82,6.98 44.60,5.12 43.97,3.95 C41.87,0.01 43.99,0.62 47.76,5.04 C49.82,7.46 54.03,12.29 57.12,15.78 C70.83,31.27 72.53,46.30 61.91,58.36 C59.72,60.85 55.58,64.01 52.71,65.39 ZM 29.37 63.56 C43.92,69.89 63.53,54.33 63.47,36.50 C63.46,33.20 62.96,29.66 62.37,28.63 C61.39,26.93 61.10,27.12 59.39,30.61 C56.74,36.02 51.57,39.31 46.72,38.68 L 42.94 38.18 L 43.57 41.53 C44.80,48.07 40.83,54.59 33.30,58.39 C31.54,59.27 28.93,60.00 27.49,60.00 C24.21,60.00 25.11,61.71 29.37,63.56 ZM 18.10 52.47 C21.81,56.69 24.85,56.99 30.30,53.69 C34.93,50.89 37.98,46.49 37.99,42.62 C38.00,38.76 32.26,28.73 30.61,29.74 C29.93,30.16 26.15,33.20 22.21,36.50 C13.66,43.66 12.92,46.56 18.10,52.47 ZM 38.70 32.21 C40.74,34.29 43.26,36.00 44.30,36.00 C49.31,36.00 56.00,28.56 56.00,22.97 C56.00,18.90 53.07,15.05 49.94,15.02 C48.00,15.00 35.00,25.62 35.00,27.23 C35.00,27.88 36.67,30.12 38.70,32.21 Z"/>
    <path class="bd-logo-glasses" d="M 35.04 34.56 C33.63,32.30 32.79,31.98 30.47,32.21 C28.54,32.40 25.02,34.41 21.19,37.51 C20.17,38.33 19.28,39.10 18.51,39.83 C19.52,38.82 20.75,37.72 22.21,36.50 C26.15,33.20 29.93,30.16 30.61,29.74 C31.45,29.23 33.37,31.60 35.04,34.56 ZM 37.28 46.01 C37.93,44.10 37.99,42.07 37.47,39.94 C37.80,40.97 38.00,41.90 37.99,42.62 C37.99,43.72 37.74,44.87 37.28,46.01 ZM 18.10 52.47 C16.02,50.09 14.90,48.21 14.85,46.34 C14.93,48.20 16.04,50.11 18.10,52.47 Z"/>
    <path class="bd-logo-glasses" d="M 38.70 32.21 C36.67,30.12 35.00,27.88 35.00,27.23 C35.00,25.62 48.00,15.00 49.94,15.02 C53.07,15.05 56.00,18.90 56.00,22.97 C56.00,28.56 49.31,36.00 44.30,36.00 C43.26,36.00 40.74,34.29 38.70,32.21 ZM 41.74 32.75 C45.01,35.24 48.81,33.42 52.41,27.65 C55.62,22.48 51.92,13.66 48.50,18.34 C47.83,19.25 46.65,20.01 45.89,20.03 C45.13,20.04 43.01,21.29 41.19,22.80 C38.13,25.34 37.96,25.78 38.98,28.52 C39.59,30.16 40.83,32.06 41.74,32.75 ZM 18.10 52.47 C16.04,50.11 14.93,48.20 14.85,46.34 C14.83,45.67 14.95,45.00 15.21,44.31 L 17.45 46.73 C18.85,48.24 20.00,49.96 20.00,50.54 C20.00,51.12 20.54,52.14 21.20,52.80 C21.86,53.46 23.23,54.00 24.25,54.00 C26.41,54.00 32.00,51.28 32.00,50.22 C32.01,49.83 33.36,48.06 35.00,46.30 C36.28,44.94 37.38,43.32 37.81,42.23 C37.87,43.54 37.69,44.80 37.28,46.01 C36.12,48.87 33.61,51.68 30.30,53.69 C24.85,56.99 21.81,56.69 18.10,52.47 ZM 31.60 32.15 C28.84,33.23 21.00,39.98 21.00,41.47 C21.00,42.17 19.63,43.02 17.95,43.36 L 15.40 43.87 C15.97,42.64 17.00,41.33 18.51,39.83 C19.28,39.10 20.17,38.33 21.19,37.51 C25.02,34.41 28.54,32.40 30.47,32.21 C30.89,32.17 31.27,32.14 31.60,32.15 ZM 35.04 34.56 C35.22,34.88 35.40,35.22 35.58,35.55 C34.75,34.23 33.85,33.07 33.12,32.46 C33.79,32.80 34.34,33.44 35.04,34.56 Z"/>
    <path class="bd-logo-glasses" d="M 31.60 32.15 C32.20,32.15 32.68,32.24 33.12,32.46 C33.85,33.07 34.75,34.23 35.58,35.55 C36.35,37.02 37.02,38.57 37.47,39.94 C37.66,40.72 37.77,41.48 37.81,42.23 C37.38,43.32 36.28,44.94 35.00,46.30 C33.36,48.06 32.01,49.83 32.00,50.22 C32.00,51.28 26.41,54.00 24.25,54.00 C23.23,54.00 21.86,53.46 21.20,52.80 C20.54,52.14 20.00,51.12 20.00,50.54 C20.00,49.96 18.85,48.24 17.45,46.73 L 15.21 44.31 C15.27,44.17 15.33,44.02 15.40,43.87 L 17.95 43.36 C19.63,43.02 21.00,42.17 21.00,41.47 C21.00,39.98 28.84,33.23 31.60,32.15 ZM 41.74 32.75 C40.83,32.06 39.59,30.16 38.98,28.52 C37.96,25.78 38.13,25.34 41.19,22.80 C43.01,21.29 45.13,20.04 45.89,20.03 C46.65,20.01 47.83,19.25 48.50,18.34 C51.92,13.66 55.62,22.48 52.41,27.65 C48.81,33.42 45.01,35.24 41.74,32.75 Z"/>
  </g>
</svg>
